<svg width="24px" height="24px" viewBox="0 0 24 24" fill="none" xmlns="http://www.w3.org/2000/svg">
<path d="M12 0C5.37258 0 0 5.37258 0 12C0 18.6274 5.37258 24 12 24C18.6274 24 24 18.6274 24 12C24 5.37258 18.6274 0 12 0ZM10.5 17.25H7.5V14.25H4.5V11.5C4.5 7.91015 7.41015 5 11 5H13C16.5899 5 19.5 7.91015 19.5 11.5V14.25H16.5V17.25H13.5V14.25H10.5V17.25ZM9.5 6.75C9.5 7.44036 8.94036 8 8.25 8C7.55964 8 7 7.44036 7 6.75C7 6.05964 7.55964 5.5 8.25 5.5C8.94036 5.5 9.5 6.05964 9.5 6.75ZM16.5 6.75C16.5 7.44036 15.9404 8 15.25 8C14.5596 8 14 7.44036 14 6.75C14 6.05964 14.5596 5.5 15.25 5.5C15.9404 5.5 16.5 6.05964 16.5 6.75Z" fill="#000000"/>
</svg>
