<svg width="24px" height="24px" viewBox="0 0 24 24" fill="none" xmlns="http://www.w3.org/2000/svg">
<path d="M12 2C13.4652 2 14.8622 2.63214 15.9017 3.66097C16.9413 4.68981 17.5 6.13696 17.5 7.63604C17.5 9.13513 16.9413 10.5823 15.9017 11.6111C14.8622 12.6399 13.4652 13.2721 12 13.2721C10.5348 13.2721 9.13782 12.6399 8.09824 11.6111C7.05865 10.5823 6.5 9.13513 6.5 7.63604C6.5 6.13696 7.05865 4.68981 8.09824 3.66097C9.13782 2.63214 10.5348 2 12 2ZM12 15.545C9.87827 15.545 7.84344 16.3946 6.34315 17.8932C4.84286 19.3919 4 21.4241 4 23.545H20C20 21.4241 19.1571 19.3919 17.6569 17.8932C16.1566 16.3946 14.1217 15.545 12 15.545Z" fill="#000000"/>
</svg>
